<?xml version="1.0" encoding="UTF-8" standalone="no"?>
<!-- Generator: Adobe Illustrator 16.0.0, SVG Export Plug-In . SVG Version: 6.00 Build 0)  -->

<svg
   xmlns:dc="http://purl.org/dc/elements/1.1/"
   xmlns:cc="http://creativecommons.org/ns#"
   xmlns:rdf="http://www.w3.org/1999/02/22-rdf-syntax-ns#"
   xmlns:svg="http://www.w3.org/2000/svg"
   xmlns="http://www.w3.org/2000/svg"
   xmlns:sodipodi="http://sodipodi.sourceforge.net/DTD/sodipodi-0.dtd"
   xmlns:inkscape="http://www.inkscape.org/namespaces/inkscape"
   version="1.1"
   id="Layer_1"
   x="0px"
   y="0px"
   width="100px"
   height="100px"
   viewBox="0 0 100 100"
   enable-background="new 0 0 100 100"
   xml:space="preserve"
   inkscape:version="0.48.4 r9939"
   sodipodi:docname="874169753631373bab4f503ddc7ff240.svg"><metadata
     id="metadata15"><rdf:RDF><cc:Work
         rdf:about=""><dc:format>image/svg+xml</dc:format><dc:type
           rdf:resource="http://purl.org/dc/dcmitype/StillImage" /><dc:title></dc:title></cc:Work></rdf:RDF></metadata><defs
     id="defs13" /><sodipodi:namedview
     pagecolor="#ffffff"
     bordercolor="#666666"
     borderopacity="1"
     objecttolerance="10"
     gridtolerance="10"
     guidetolerance="10"
     inkscape:pageopacity="0"
     inkscape:pageshadow="2"
     inkscape:window-width="1869"
     inkscape:window-height="1056"
     id="namedview11"
     showgrid="false"
     inkscape:zoom="2.36"
     inkscape:cx="50"
     inkscape:cy="50"
     inkscape:window-x="51"
     inkscape:window-y="24"
     inkscape:window-maximized="1"
     inkscape:current-layer="Layer_1" /><g
     id="g3"
     style="fill:#ffffff"><g
       id="g5"
       style="fill:#ffffff"><path
         fill-rule="evenodd"
         clip-rule="evenodd"
         fill="#6EBFAC"
         d="M7.073,13.627h67.929c2.509,0.66,1.556,1.611,1.043,2.611    l-5.426,8.949c-1,1.618-2.171,2.224-3.511,1.809l-41.779-0.02l31.257,52.361c0.93,1.34,1.006,2.678,0.237,4.014l-5.055,7.483    c-1.771,1.227-3.541,0.921-5.315-0.908L4.909,20.117C3.146,16.617,4.419,14.757,7.073,13.627z"
         id="path7"
         style="fill:#ffffff" /><path
         fill-rule="evenodd"
         clip-rule="evenodd"
         fill="#C6E3DC"
         d="M31.643,29.792h13.241c1.782,0.21,2.67,1.321,3.433,2.55    l11.082,18.775l21.386-36.234c0.52-1.125,1.408-1.903,2.949-2.009l9.182-0.067c3.585,0.543,3.293,2.876,2.447,5.464L62.811,74.375    c-1.931,2.203-3.964,2.811-6.225-0.085L31.515,32.083C30.709,31.151,30.749,30.393,31.643,29.792z"
         id="path9"
         style="fill:#ffffff" /></g></g></svg>